<svg width="1033" height="860" viewBox="0 0 1033 860" fill="none" xmlns="http://www.w3.org/2000/svg">
  <g clip-path="url(#clip0_1551_73382)">
    <path fill-rule="evenodd" clip-rule="evenodd" d="M39.9988 620.432C89.7919 822.897 503.845 853.353 503.845 853.353h-.006c355.865 52.026 549.501-230.828 528.051-348.821-9.26-50.886-46.333-98.337-82.169-144.199-47.26-60.483-92.36-118.202-68.634-177.391 41.725-104.0699 9.425-237.3165-122.531-303.258-67.556-33.76-122.004-19.549-168.599-7.389-44.417 11.593-81.696 21.322-116.39-14.142-71.087-72.673-239.783-69.979-354.169 84.3117-67.1271 90.5449-36.0015 150.9852-6.439 208.3903 20.812 40.414 40.85 79.324 25.282 126.175-12.046 36.255-31.522 63.734-50.8166 90.959C46.3672 425.92 6.125 482.702 39.9988 620.432ZM289 198c-16.016 0-29 12.984-29 29v420c0 16.016 12.984 29 29 29h164c16.016 0 29-12.984 29-29V227c0-16.016-12.984-29-29-29H289Z" fill="url(#paint0_linear_1551_73382)"/>
    <path fill-rule="evenodd" clip-rule="evenodd" d="M260 386.294c-.953-7.194-2.97-14.744-6.416-22.533 0 0-20.901-28.938-29.192-18.342 0 0-63.135 150.343-68.884 172.698-.691 2.684-1.409 5.248-2.124 7.804-5.246 18.734-10.37 37.035-3.626 98.858 2.028 18.597 2.756 34.108 2.734 46.863-.048 24.483-5.517 48.65-15.985 70.785L114 783.075c13.479 38.575 49.874 64.411 90.736 64.411h17.889c12.328 0 23.983-5.624 31.655-15.274l15.044-18.926c4.999-13.466 15.235-24.289 28.324-30.211 12.329-5.578 28.916-15.704 44.998-33.752 31.295-35.127 47.904-72.813 47.904-72.813l-105.482-.518s.014-.084.037-.251C270.931 673.838 260 661.695 260 647v-78.104c-4.963-9.681-10.861-19.802-17.863-30.269-5.609-8.387-8.164-18.452-7.29-28.507l4.968-57.152s16.6-18.551 20.185-46.039v-20.635Z" fill="#FFB3C5"/>
    <path d="M243.748 753.773c-15.797-17.539-37.743-14.769-60.821-22.771-23.078-8.002-30.483-65.684-30.483-65.684v-.009c.035 2.177.053 4.292.048 6.325-.048 24.483-5.517 48.649-15.985 70.784-23.934 50.596 12.972 108.879 68.942 108.879h19.048c18.46 0 34.972-11.481 41.4-28.785l3.427-9.226c4.999-13.466 15.235-24.289 28.324-30.211 10.49-4.749 24.07-12.79 37.795-26.207-46.877 19.703-75.894 14.449-91.695-3.09v-.005Z" fill="#EA94AD" style="mix-blend-mode:multiply" opacity=".2"/>
    <path d="M616.19 360.5c-.597-2.607-2.932-4.551-5.724-4.551-.513 0-1.009.065-1.483.188-1.378-2.945-4.363-4.986-7.83-4.986-.896 0-1.76.136-2.572.391-1.866-3.09-5.254-5.153-9.126-5.153-4.604 0-8.528 2.923-10.016 7.014-1.053-.588-2.265-.922-3.555-.922-4.038 0-7.308 3.274-7.308 7.308 0 .242.013.474.035.711h47.579Z" fill="#E4C4FF"/>
    <path fill-rule="evenodd" clip-rule="evenodd" d="M260 548.142c-3.44 5.971-5.757 10.088-5.757 10.088s-35.798 87.63-32.327 104.199c3.472 16.57 25.195 38.726 78.493 31.339 53.298-7.387 90.136-17.258 90.136-17.258s.004-.174.01-.51H285c-13.807 0-25-11.193-25-25V548.142Z" fill="#EA94AD" style="mix-blend-mode:multiply" opacity=".2"/>
    <path d="M590.302 141.829c-1.562-6.808-7.654-11.886-14.941-11.886-1.338 0-2.633.171-3.871.492-3.595-7.686-11.394-13.014-20.44-13.014-2.34 0-4.596.355-6.716 1.018-4.867-8.063-13.716-13.453-23.824-13.453-12.027 0-22.267 7.633-26.147 18.316-2.748-1.532-5.908-2.405-9.279-2.405-10.538 0-19.084 8.546-19.084 19.084 0 .623.031 1.242.092 1.852h124.206l.004-.004ZM210.566 305.346c-1.308-5.698-6.408-9.951-12.505-9.951-1.119 0-2.203.145-3.239.413-3.007-6.435-9.538-10.89-17.109-10.89-1.958 0-3.845.299-5.619.852-4.077-6.751-11.482-11.263-19.94-11.263-10.064 0-18.636 6.386-21.884 15.331-2.3-1.281-4.947-2.014-7.765-2.014-8.822 0-15.972 7.15-15.972 15.972 0 .522.026 1.04.074 1.55H210.566Z" fill="#E4C4FF"/>
    <path d="M485.712 245.178s36.053-24.127 44.283-8.229c8.23 15.897-46.837 72.145-46.837 72.145l2.554-63.916ZM485.712 350.309s36.053-24.128 44.283-8.234c8.23 15.897-46.837 72.145-46.837 72.145l2.554-63.916v.005ZM485.712 421.932s36.053-24.128 44.283-8.234c8.23 15.897-46.837 72.145-46.837 72.145l2.554-63.916v.005Z" fill="#FFB3C5"/>
    <path d="M246.618 286.825h3.882v18.206h-3.882a.1182.1182 0 0 1-.118-.118v-17.97c0-.066.053-.118.118-.118ZM246.618 322.5h3.882v38h-3.882a.1182.1182 0 0 1-.118-.118v-37.764c0-.065.053-.118.118-.118Z" fill="#fff" stroke="#C3C3C3"/>
    <path d="M247.062 360.582c0 .17.138.309.309.309h1.385v-2.825h-1.694v2.516Z" fill="#fff"/>
    <path d="M247.113 371.213h2.052v38.669h-2.052a.4643.4643 0 0 1-.464-.464v-37.741c0-.256.208-.464.464-.464Z" fill="#fff" stroke="#005A4D" stroke-width=".309"/>
    <path d="M247.062 371.933c0-.171.138-.309.309-.309h1.385v2.824h-1.694v-2.515ZM247.062 409.163c0 .171.138.309.309.309h1.385v-2.824h-1.694v2.515Z" fill="#fff"/>
    <path d="M494.382 336.537H489.5v60.009h4.882c.065 0 .118-.053.118-.118v-59.773c0-.065-.053-.118-.118-.118Z" fill="#fff" stroke="#C3C3C3"/>
    <path fill-rule="evenodd" clip-rule="evenodd" d="M288.302 186.337c-21.839 0-39.543 17.703-39.543 39.542v423.109c0 21.839 17.704 39.543 39.543 39.543h164.95c21.839 0 39.543-17.704 39.543-39.543V225.879c0-21.839-17.704-39.542-39.543-39.542h-164.95Zm-1.695 3.954c-18.719 0-33.894 15.175-33.894 33.894v426.498c0 18.719 15.175 33.893 33.894 33.893h168.34c18.719 0 33.894-15.174 33.894-33.893V224.185c0-18.719-15.175-33.894-33.894-33.894h-168.34Z" fill="#fff"/>
    <path d="M288.302 186.837h164.95c21.563 0 39.043 17.48 39.043 39.042v423.109c0 21.563-17.48 39.043-39.043 39.043h-164.95c-21.563 0-39.043-17.48-39.043-39.043V225.879c0-21.562 17.48-39.042 39.043-39.042Z" stroke="#C3C3C3"/>
    <path fill-rule="evenodd" clip-rule="evenodd" d="M286.605 190.29c-18.719 0-33.894 15.175-33.894 33.894v426.498c0 18.719 15.175 33.894 33.894 33.894h168.339c18.719 0 33.894-15.175 33.894-33.894V224.184c0-18.719-15.175-33.894-33.894-33.894H286.605Zm1.129 8.474c-14.975 0-27.115 12.139-27.115 27.115v422.543c0 14.976 12.14 27.115 27.115 27.115h166.08c14.976 0 27.116-12.139 27.116-27.115V225.879c0-14.976-12.14-27.115-27.116-27.115h-166.08Z" fill="#000"/>
    <path fill="url(#paint1_linear_1551_73382)" fill-opacity=".16" d="M488.839 236.613h3.3894v5.649h-3.3894z"/>
    <path fill="url(#paint2_linear_1551_73382)" fill-opacity=".16" d="M488.839 632.606h3.3894v5.649h-3.3894z"/>
    <path transform="matrix(-1 0 0 1 252.712 632.606)" fill="url(#paint3_linear_1551_73382)" fill-opacity=".16" d="M0 0h3.3894v5.649H0z"/>
    <path transform="matrix(-1 0 0 1 252.712 236.613)" fill="url(#paint4_linear_1551_73382)" fill-opacity=".16" d="M0 0h3.3894v5.649H0z"/>
    <path transform="rotate(-90 438.562 190.293)" fill="url(#paint5_linear_1551_73382)" fill-opacity=".16" d="M438.562 190.293h3.3894v5.649h-3.3894z"/>
    <path transform="matrix(0 1 1 0 297.341 684.578)" fill="url(#paint6_linear_1551_73382)" fill-opacity=".16" d="M0 0h3.3894v5.649H0z"/>
    <path d="M324.977 190.348h92.078v14.687c0 7.488-6.07 13.558-13.558 13.558h-64.963c-7.488 0-13.557-6.07-13.557-13.558v-14.687ZM419.316 198.738h-2.26v2.259c0-1.248 1.012-2.259 2.26-2.259ZM322.717 198.738h2.26v2.26c0-1.248-1.012-2.26-2.26-2.26Z" fill="#000"/>
    <circle cx="337.445" cy="205.541" fill="#201620" r="5.649"/>
    <circle cx="337.444" cy="205.54" r="3.2349" fill="#151733" stroke="#000" stroke-width=".309"/>
    <ellipse cx="337.445" cy="204.13" rx="1.1298" ry=".8473" fill="#fff" fill-opacity=".5"/>
    <ellipse cx="337.588" cy="206.671" rx=".7061" ry=".5649" fill="#fff" fill-opacity=".24"/>
    <path d="M351.005 190.29h40.108v4.413c0 .683-.553 1.236-1.236 1.236h-37.636c-.682 0-1.236-.553-1.236-1.236v-4.413Z" fill="#1C1C1C"/>
    <path d="M351.727 191.01h38.669v3.129c0 .597-.484 1.081-1.082 1.081h-36.505c-.598 0-1.082-.484-1.082-1.081v-3.129Z" fill="#181818" stroke="#000" stroke-width=".309"/>
    <path d="M231.726 487.454s1.361 5.056 4.433 7.545l3.656-42.031s26.208-29.289 19.875-68.788c-2.169-13.523-8.893-25.966-19.181-35.008-5.873-5.162-12.321-8.612-16.122-3.753 0 0-29.688 70.701-50.203 122.34l57.538 19.695h.004Z" fill="#FFB3C5"/>
    <path d="M229.729 386.941c8.204-3.775 12.487-25.12 14.019-34.714-6.584-6.624-14.84-12.584-19.356-6.812 0 0-6.536 15.568-15.595 37.431 6.193 3.445 14.8 6.917 20.937 4.095h-.005Z" fill="#F36B80"/>
    <path d="M436.434 508.144s-30.443 2.555-31.51 10.644c-1.062 8.09 1.278 22.354 30.018 25.124h29.772s-8.906-24.698-8.48-25.55c.426-.851-19.8-10.218-19.8-10.218Z" fill="#EA94AD"/>
    <path d="M387.587 628.83c-4.122 2.19-5.557 7.4-3.217 11.438 14.01 24.163 69.718 120.186 74.739 127.998 5.75 8.941 19.8 30.018 66.426 40.877 29.215 6.804 47.647 21.631 57.338 31.756 5.765 6.022 13.531 10.398 21.867 10.398 56.571 0 99.586-67.131 84.919-121.767-5.553-20.686-11.175-44.316-16.585-71.117 0 0-21.713-115.603-62.59-111.771 0 0-24.909-26.186-49.181-21.077 0 0-45.986-27.463-72.172-27.463l-62.901-74.336c-6.224-7.356-17.197-8.8-24.852-2.94-2.463 1.882-4.341 4.376-4.859 7.659-1.918 12.136 14.05 42.79 39.599 79.835 25.55 37.045 88.781 154.566 61.313 206.297 0 0-28.104-21.077-52.372-54.926-20.322-28.346-44.23-37.884-57.468-30.857l-.004-.004Z" fill="#FFB3C5"/>
    <path d="M489.359 498.128c8.344 7.146 16.17 14.893 23.557 23.035 7.357 8.006 14.41 16.775 20.814 25.62 5.886 8.15 12.786 19.128 17.171 28.253 5.951 12.066 8.615 21.015 10.384 31.291l-.188.039c-2.256-10.692-6.474-20.897-11.531-30.637-3.485-6.856-10.345-18.197-17.39-27.832-6.36-8.914-13.233-17.46-20.396-25.742-6.751-7.787-15.235-16.89-22.548-23.891l.132-.14-.005.004ZM560.886 525.363c6.79 3.477 12.847 8.322 18.198 13.8 10.064 10.143 18.311 24.053 22.424 39.705 1.65 6.952 2.717 11.657 2.888 22.652l-.193.014c-.632-7.532-2.006-14.998-4.143-22.241-4.622-15.033-11.878-27.897-22.096-39.107-4.81-5.267-11.096-10.943-17.179-14.656l.097-.167h.004ZM609.975 546.129c6.004 4.542 12.061 12.557 15.011 17.991 6.808 11.693 10.025 24.11 10.587 37.396l-.189.026c-2.559-14.8-5.074-23.201-11.982-36.557-2.252-4.495-8.059-13.317-13.532-18.738l.109-.118h-.004Z" fill="#EA94AD"/>
    <path d="M416.595 658.562c1.273-6.465-6.259-16.718-13.097-24.456-4.271-4.828-11.008-6.637-16.938-4.613-3.314 2.453-4.324 7.097-2.19 10.78 3.766 6.491 10.542 18.175 18.535 31.94 5.987-3.051 12.509-7.664 13.69-13.646v-.005ZM422.63 452.937c3.635-.729 20.12-6.211 19.111-9.213l-16.258-19.216a18.5175 18.5175 0 0 0-12.395-6.474.3407.3407 0 0 1-.074-.009c-.132-.013-.431-.035-.848-.035-2.181 0-7.549.623-8.73 6.527-1.167 5.829 8.485 19.997 12.738 25.892 1.47 2.036 3.994 3.024 6.456 2.532v-.004Z" fill="#F36B80"/>
    <path d="M134.044 750.868c18.009 11.065 75.991 44.151 135.939 51.204 3.511.413 5.982 3.634 4.942 6.413l-10.473 28.051c-.693 1.857-2.778 2.941-5.122 2.656-17.667-2.147-90.567-13.12-141.859-52.798-1.747-1.352-2.48-3.397-1.831-5.149l10.688-28.63c1.005-2.695 4.78-3.551 7.712-1.752l.004.005Z" fill="#5C407B"/>
    <path d="m129.181 777.839-.996-.373c-.83-.311-1.251-1.233-.944-2.067l3.525-9.437c.311-.83 1.233-1.251 2.067-.944l.996.373c.83.312 1.251 1.234.944 2.068l-3.525 9.437c-.311.829-1.233 1.25-2.067.943ZM143.621 771.672l.999.373c.831.31 1.254 1.236.944 2.067l-3.523 9.437c-.31.83-1.236 1.253-2.067.943l-.999-.373c-.831-.31-1.253-1.236-.943-2.067l3.522-9.437c.31-.831 1.237-1.253 2.067-.943ZM154.426 778.272l.999.373c.831.31 1.253 1.236.943 2.066l-3.522 9.438c-.31.83-1.237 1.253-2.067.943l-.999-.373c-.831-.31-1.254-1.236-.944-2.067l3.523-9.437c.31-.831 1.236-1.253 2.067-.943ZM165.528 783.636l.999.373c.831.31 1.254 1.237.944 2.067l-3.523 9.437c-.31.831-1.236 1.254-2.067.944l-.999-.373c-.831-.31-1.254-1.237-.944-2.067l3.523-9.437c.31-.831 1.236-1.254 2.067-.944ZM176.485 789.885l.999.373c.831.31 1.254 1.236.943 2.067l-3.522 9.437c-.31.831-1.236 1.254-2.067.944l-.995-.372c-.831-.31-1.254-1.236-.943-2.067l3.522-9.437c.31-.831 1.237-1.253 2.067-.943l-.004-.002ZM188.891 795.201l-.996-.371c-.831-.311-1.756.111-2.066.943l-3.522 9.433c-.31.831.112 1.756.944 2.067l.995.371c.831.31 1.756-.112 2.066-.943l3.522-9.433c.31-.831-.112-1.757-.943-2.067ZM197.455 800.178l-3.523 9.432c-.311.831.112 1.757.943 2.067l.995.372c.831.31 1.756-.112 2.067-.943l3.523-9.432c.31-.832-.112-1.757-.943-2.067l-.995-.372c-.831-.31-1.757.112-2.067.943ZM211.43 802.926l.999.373c.831.31 1.253 1.236.943 2.067l-3.522 9.437c-.31.831-1.237 1.253-2.067.943l-.999-.373c-.831-.31-1.254-1.236-.944-2.067l3.523-9.437c.31-.83 1.236-1.253 2.067-.943ZM220.095 818.189l-.997-.373c-.829-.312-1.251-1.233-.943-2.067l3.524-9.437c.312-.83 1.234-1.251 2.068-.944l.996.373c.829.312 1.251 1.234.944 2.068l-3.525 9.437c-.312.829-1.233 1.25-2.067.943ZM230.182 819.035l3.519-9.438c.31-.831 1.236-1.254 2.067-.944l.999.373c.831.309 1.254 1.235.944 2.066l-3.52 9.438c-.309.831-1.235 1.254-2.066.944l-.999-.372c-.831-.31-1.254-1.236-.944-2.067ZM248.263 810.79l.999.373c.831.31 1.253 1.236.943 2.067l-3.523 9.437c-.31.831-1.236 1.253-2.066.943l-1-.373c-.83-.31-1.253-1.236-.943-2.066l3.523-9.438c.31-.83 1.236-1.253 2.067-.943ZM257.105 825.655l-.997-.373c-.829-.312-1.251-1.233-.943-2.067l3.524-9.437c.312-.83 1.234-1.251 2.067-.944l.997.373c.829.312 1.251 1.234.943 2.068l-3.524 9.437c-.312.829-1.233 1.25-2.067.943Z" fill="#8B5DD0"/>
    <path d="m169.628 815.823.048-.131c-.189-.027-.382-.071-.566-.136l-14.191-5.298c-1.4-.523-2.08-2.182-1.514-3.692L166.2 772.3c.566-1.514 2.164-2.318 3.564-1.795l14.186 5.298c.829.311 1.404 1.018 1.619 1.861 1.115.487 2.234.97 3.371 1.457.378-2.88-1.101-5.68-3.739-6.667l-14.191-5.298c-3.107-1.159-6.658.627-7.913 3.985l-12.795 34.267c-1.255 3.357.255 7.036 3.362 8.199l14.186 5.297c2.129.795 4.464.207 6.127-1.321-1.448-.57-2.901-1.154-4.358-1.755l.009-.005Z" fill="#B984F9"/>
    <path d="m166.516 788.632-6.171-2.304c-1.107-.413-2.366.219-2.81 1.418-.447 1.194.088 2.497 1.194 2.91l6.172 2.304 1.615-4.328Z" fill="#fff"/>
    <path d="M443.712 519.973c28.174 45.275 78.729 149.269 53.719 194.644l16.6 16.385s41.943-46.464-24.803-148.935c-15.534-23.846-30.97-44.471-45.516-62.094Z" fill="#EA94AD" style="mix-blend-mode:multiply" opacity=".2"/>
    <path d="M8.815 351.814c-5.8465-29.583 38.2782-39.525 45.3799-10.218.6408 2.651 1.0534 5.609 1.1851 8.91 1.3738 35.219-19.9314 73.559-42.6104 67.107-22.679-6.457-9.6212-30.51-2.7477-44.946 3.2086-6.733.3029-13.225-1.2026-20.853h-.0044Z" fill="#8B5DD0"/>
    <path d="M206.98 151.938c.886-3.858 4.341-6.737 8.467-6.737.759 0 1.492.097 2.194.281 2.037-4.354 6.457-7.374 11.583-7.374 1.326 0 2.603.202 3.806.575 2.761-4.569 7.773-7.624 13.501-7.624 6.816 0 12.619 4.323 14.818 10.38 1.558-.869 3.349-1.365 5.258-1.365 5.974 0 10.815 4.842 10.815 10.815 0 .356-.017.703-.052 1.049h-70.395.005Z" fill="#E4C4FF"/>
    <path d="M692.001 567.986s-1.479 14.599-13.001 15.608c11.522 1.01 13.001 15.608 13.001 15.608s1.479-14.598 13.001-15.608c-11.522-1.009-13.001-15.608-13.001-15.608ZM559.121 240.232s-1.062 10.472-9.327 11.201c8.265.724 9.327 11.201 9.327 11.201s1.063-10.472 9.328-11.201c-8.265-.724-9.328-11.201-9.328-11.201ZM200.896 184.094s-.667 6.584-5.864 7.04c5.197.457 5.864 7.04 5.864 7.04s.668-6.583 5.864-7.04c-5.196-.456-5.864-7.04-5.864-7.04ZM158.554 363.538s-1.479 14.598-13.001 15.608c11.522 1.009 13.001 15.608 13.001 15.608s1.479-14.599 13.001-15.608c-11.522-1.01-13.001-15.608-13.001-15.608ZM609.865 431.039s-.979 9.656-8.598 10.324c7.619.667 8.598 10.323 8.598 10.323s.979-9.656 8.599-10.323c-7.62-.668-8.599-10.324-8.599-10.324ZM585.544 212.29s-.535 5.267-4.692 5.631c4.157.365 4.692 5.632 4.692 5.632s.536-5.267 4.693-5.632c-4.157-.364-4.693-5.631-4.693-5.631ZM182.787 329.385s-.979 9.657-8.599 10.324c7.62.667 8.599 10.323 8.599 10.323s.978-9.656 8.598-10.323c-7.62-.667-8.598-10.324-8.598-10.324ZM238.016 170.145s-.514 5.052-4.499 5.403c3.985.351 4.499 5.403 4.499 5.403s.513-5.052 4.499-5.403c-3.986-.351-4.499-5.403-4.499-5.403ZM565.337 402.044s-.439 4.319-3.85 4.622c3.411.298 3.85 4.622 3.85 4.622s.439-4.319 3.849-4.622c-3.41-.299-3.849-4.622-3.849-4.622ZM168.785 420.545s-.439 4.319-3.849 4.622c3.41.298 3.849 4.621 3.849 4.621s.439-4.319 3.849-4.621c-3.41-.299-3.849-4.622-3.849-4.622ZM208.81 219.449s-.865 8.532-7.598 9.125c6.733.588 7.598 9.125 7.598 9.125s.865-8.532 7.598-9.125c-6.733-.588-7.598-9.125-7.598-9.125ZM599.327 23.045S598.265 34.0152 590 34.7784c8.265.7586 9.327 11.7333 9.327 11.7333s1.062-10.9701 9.327-11.7333c-8.265-.7586-9.327-11.7334-9.327-11.7334Z" fill="#fff"/>
  </g>
  <defs>
    <linearGradient id="paint0_linear_1551_73382" x1="948.517" y1="-579.554" x2="-284.124" y2="374.557" gradientUnits="userSpaceOnUse">
      <stop stop-color="#F250F9"/>
      <stop offset="1" stop-color="#6557F6"/>
    </linearGradient>
    <linearGradient id="paint1_linear_1551_73382" x1="488.839" y1="238.872" x2="493.681" y2="238.872" gradientUnits="userSpaceOnUse">
      <stop/>
      <stop offset="1" stop-opacity="0"/>
    </linearGradient>
    <linearGradient id="paint2_linear_1551_73382" x1="488.839" y1="634.866" x2="493.681" y2="634.866" gradientUnits="userSpaceOnUse">
      <stop/>
      <stop offset="1" stop-opacity="0"/>
    </linearGradient>
    <linearGradient id="paint3_linear_1551_73382" x1="0" y1="2.2596" x2="4.842" y2="2.2596" gradientUnits="userSpaceOnUse">
      <stop/>
      <stop offset="1" stop-opacity="0"/>
    </linearGradient>
    <linearGradient id="paint4_linear_1551_73382" x1="0" y1="2.2596" x2="4.842" y2="2.2596" gradientUnits="userSpaceOnUse">
      <stop/>
      <stop offset="1" stop-opacity="0"/>
    </linearGradient>
    <linearGradient id="paint5_linear_1551_73382" x1="438.562" y1="192.552" x2="443.404" y2="192.552" gradientUnits="userSpaceOnUse">
      <stop/>
      <stop offset="1" stop-opacity="0"/>
    </linearGradient>
    <linearGradient id="paint6_linear_1551_73382" x1="0" y1="2.2596" x2="4.842" y2="2.2596" gradientUnits="userSpaceOnUse">
      <stop/>
      <stop offset="1" stop-opacity="0"/>
    </linearGradient>
    <clipPath id="clip0_1551_73382">
      <path fill="#fff" d="M0 0h1033v860H0z"/>
    </clipPath>
  </defs>
</svg>
